# xmcd CD database file
#
# Track frame offsets:
#	150
#	18068
#	33449
#	49014
#	60937
#	78052
#	94628
#	111214
#	130617
#	145589
#	161123
#	179465
#	193865
#	212602
#	231063
#	250374
#	269787
#	289192
#	302261
#
# Disc length: 4261 seconds
#
# Revision: 0
# Processed by: cddbd v1.5.1PL0 Copyright (c) Steve Scherf et al.
# Submitted via: CDex 1.40Release
#
DISCID=fb10a313
DTITLE=Kenny Chesney - Greatest Hits Plus
DYEAR=2000
DGENRE=Country
TTITLE0=I Lost It
TTITLE1=Don't Happen Twice
TTITLE2=The Tin Man
TTITLE3=Fall In Love
TTITLE4=All I Need To Know
TTITLE5=For The First Time
TTITLE6=Me And You
TTITLE7=Back Where I Come From
TTITLE8=When I Close My Eyes
TTITLE9=She's Got It All
TTITLE10=That's Why I'm here
TTITLE11=How Forever Feels
TTITLE12=She Thinks My Tractor's Sexy
TTITLE13=What I Need To Do
TTITLE14=Baptism
TTITLE15=Because Of Your Love
TTITLE16=Grandpa Told Me So
TTITLE17=She Always Says It First
TTITLE18=You Had Me From Hello
EXTD=YEAR: 2000 ID3G: 2
EXTT0=
EXTT1=
EXTT2=
EXTT3=
EXTT4=
EXTT5=
EXTT6=
EXTT7=
EXTT8=
EXTT9=
EXTT10=
EXTT11=
EXTT12=
EXTT13=
EXTT14=
EXTT15=
EXTT16=
EXTT17=
EXTT18=
PLAYORDER=
